<?xml version="1.0" encoding="utf-8"?>
<!-- Generator: Adobe Illustrator 17.0.0, SVG Export Plug-In . SVG Version: 6.00 Build 0)  -->
<!DOCTYPE svg PUBLIC "-//W3C//DTD SVG 1.1//EN" "http://www.w3.org/Graphics/SVG/1.1/DTD/svg11.dtd">
<svg version="1.1" id="Layer_1" xmlns="http://www.w3.org/2000/svg" xmlns:xlink="http://www.w3.org/1999/xlink" x="0px" y="0px"
	 width="1194px" height="788.381px" viewBox="0 0 1194 788.381" enable-background="new 0 0 1194 788.381" xml:space="preserve">
<g>
	<path fill="#FFD715" d="M620.516,302.384c0,0-0.929,8.048-17.025,2.786c-16.096-5.262-18.573,0.619-26.311-11.763
		c-7.739-12.382-23.216-41.169-32.193-49.217c-8.977-8.048-20.739-17.954-21.668-25.692c-0.929-7.739-6.191-17.954-6.191-19.192
		c0-1.238,2.322-1.393,4.024,0c1.702,1.393,5.727,6.191,6.81,7.584c1.083,1.393,7.12,8.977,7.584,9.286
		c0.464,0.31,10.834,9.596,11.298,9.905c0.464,0.31,8.977,7.429,8.977,7.429l7.584,10.989l7.584,16.715l5.727,11.763l12.227,8.977
		l37.3,12.846L620.516,302.384z"/>
	<path fill="#FFD715" d="M682.527,216.434c-5.365,3.921-10.937,8.255-10.937,10.525c0,2.27,1.238,3.921,5.469,5.365
		c4.23,1.445,12.485,1.857,13.929,1.238c1.445-0.619,7.223-5.572,7.223-5.572l2.889-5.365l-2.683-7.842L682.527,216.434z"/>
	<path fill="#FFD715" d="M722.562,224.312c-5.365,0.583-15.683,3.678-17.541,4.504c-1.857,0.826-18.676,17.541-18.676,17.541
		l11.04,6.28l20.843,13.531l4.334-2.244c0,0-1.005-5.732-5.469-11.286c-4.162-5.179-6.5-14.793-5.107-16.572
		c1.393-1.78,8.899-6.346,10.989-5.727c2.089,0.619,6.423,2.863,6.423,2.863l0.464-4.411L722.562,224.312z"/>
	<path fill="#FFD715" d="M675.846,259.125c-1.703,2.012-10.757,19.501-10.757,19.501l1.857,16.561l5.881,1.006l12.382-8.048
		l5.185-30.877c0,0-3.018-1.78-10.138-0.619C678.168,257.887,675.846,259.125,675.846,259.125z"/>
	<path fill="#FFD715" d="M716.164,325.135l-13.001,1.857l-14.703,7.971v5.262l5.881-3.56l7.971-3.405l6.81-1.857l2.491,2.322
		l0.604,2.322l-5.03,5.649l0.619,12.717l10.314,7.867l4.003,0.619c0,0,4.024-0.217,5.34-1.85c1.316-1.633,2.167-5.579,2.167-5.579
		s0.929-2.941-1.238-12.15C726.225,334.112,716.164,325.135,716.164,325.135z"/>
	<path fill="#FFD715" d="M702.08,413.819c-0.31-0.464-32.347-34.824-32.347-34.824l-41.479-24.041l-9.751,6.095l12.691,4.635
		l23.835,17.644l17.18,19.346l6.655,11.143l7.429,2.476l6.5,6.81l16.35,4.054l17.081-4.518c0,0,3.579-4.488-3.24-9.518
		C716.45,410.355,702.08,413.819,702.08,413.819z"/>
	<polygon fill="#FFD715" points="594.927,396.794 585.382,399.993 592.811,407.525 604.626,406.081 604.265,402.16 598.435,397.259 
			"/>
	<polygon fill="#FFD715" points="543.439,362.125 521.617,386.424 533.843,383.793 544.677,374.275 569.905,370.793 	"/>
	<path fill="#FFD715" d="M504.282,369.864l-8.667-4.179l-6.191,7.584l-4.334,11.53c0,0-5.494,10.138-5.649,13.62
		c-0.155,3.482,0.31,16.251,7.971,16.87c3.173-0.464,5.107-1.006,5.107-1.006l3.328,1.548h3.25c0,0,1.702,0.696,3.56-3.405
		c1.006,1.548,2.631,2.476,2.631,2.476l3.25,0.542c0,0,2.78,0.071,3.715-4.334c0.935-4.405-4.488-8.435-4.488-8.435l-6.113-4.643
		c0,0-2.631,0.387-3.328-8.977C497.627,379.692,504.282,369.864,504.282,369.864z"/>
	<path fill="#FFD715" d="M632.68,235.615c0,0,0.217,3.776,2.075,6.562c1.857,2.786-18.573,25.847-18.573,25.847l-5.572-4.953
		l-2.941-19.346l24.592-7.688"/>
	<path fill="#FFD715" d="M715.124,208.898c0,0,1.003,0.659,3.073,0.97c-0.523,3.638-3.073,7.972-3.073,7.972l-17.958,14.355
		l1.432-4.875l8.706-17.954L715.124,208.898"/>
	<path fill="#FFD715" d="M693.645,253.398c-8.177-0.167-26.388,0.387-26.388,0.387s-16.406,25.176-10.318,37.971
		c6.088,12.795,6.294-9.596,6.294-9.596l9.435-20.12l8.519-5.469c0,0,7.198-1.568,13.563,2.224
		C692.969,257.054,692.949,255.385,693.645,253.398z"/>
	<path fill="#FFD715" d="M669.992,354.462c0,0-0.724,2.52,0.437,5.595c1.161,3.074-10.989-13.409-10.989-13.409
		s4.566-2.283,6.21-0.271C667.295,348.389,669.992,354.462,669.992,354.462"/>
	<g>
		<path fill="#000100" d="M310.734,493.86c-1.195,0.241-2.09,0.358-2.687,0.358c-1.553,0-2.687-0.296-3.403-0.896
			c-0.716-0.596-1.253-1.253-1.612-1.97c-3.106-6.806-6.805-11.758-11.104-14.864c-4.298-3.104-10.149-4.656-17.551-4.656
			c-2.865,0-5.583,0.389-8.148,1.164c-2.569,0.778-4.808,1.911-6.716,3.402c-1.911,1.494-3.434,3.314-4.567,5.462
			c-1.136,2.149-1.701,4.539-1.701,7.164c0,5.613,2.356,10.208,7.074,13.79c4.715,3.582,11.669,7.225,20.864,10.924
			c11.461,4.538,19.907,9.581,25.341,15.133c5.432,5.552,8.149,12.388,8.149,20.505c0,4.897-0.747,9.464-2.239,13.701
			c-1.494,4.239-3.822,7.941-6.984,11.104c-3.165,3.165-7.253,5.641-12.268,7.432c-5.015,1.79-11.045,2.686-18.088,2.686
			c-7.404,0-14.12-0.778-20.147-2.328c-6.03-1.55-11.134-3.582-15.312-6.089c-0.358-5.015-0.896-9.85-1.612-14.506
			c-0.716-4.656-1.553-9.312-2.507-13.969c0.834-0.358,1.85-0.538,3.044-0.538c1.433,0,2.535,0.33,3.314,0.985
			c0.775,0.657,1.46,1.701,2.06,3.134c2.983,8.596,6.833,14.926,11.551,18.983c4.715,4.061,11.311,6.089,19.789,6.089
			c3.82,0,7.164-0.538,10.029-1.612c2.865-1.075,5.252-2.566,7.164-4.478c1.908-1.908,3.341-4.058,4.298-6.447
			c0.954-2.387,1.433-4.953,1.433-7.701c0-6.207-2.121-11.104-6.357-14.685c-4.239-3.582-10.298-6.806-18.178-9.671
			c-5.135-1.909-9.791-3.909-13.969-5.999c-4.181-2.087-7.763-4.505-10.746-7.253c-2.986-2.745-5.283-5.938-6.895-9.581
			c-1.612-3.641-2.417-7.97-2.417-12.984c0-4.416,0.806-8.566,2.417-12.447c1.612-3.878,3.94-7.253,6.985-10.119
			c3.044-2.866,6.716-5.132,11.014-6.805c4.298-1.671,9.134-2.507,14.506-2.507c5.61,0,10.983,0.537,16.118,1.612
			c5.132,1.074,10.924,2.865,17.372,5.373c0.238,3.582,0.565,7.432,0.985,11.551C309.45,486.428,310.018,490.279,310.734,493.86z"/>
		<path fill="#000100" d="M391.861,539.528h-39.937l-11.462,28.834c-0.599,1.433-0.896,2.627-0.896,3.582
			c0,2.507,3.641,4.298,10.924,5.372c0.834,0.12,1.402,0.448,1.702,0.985c0.296,0.538,0.448,1.164,0.448,1.88
			c0,0.717-0.121,1.674-0.358,2.866c-3.224-0.241-6.626-0.448-10.208-0.627c-3.581-0.179-7.105-0.268-10.566-0.268
			c-2.39,0-4.835,0.059-7.342,0.179c-2.507,0.117-5.135,0.358-7.88,0.716c-0.24-0.954-0.358-1.909-0.358-2.866
			c0-0.833,0.148-1.55,0.448-2.149c0.296-0.596,0.923-0.954,1.88-1.075c3.699-0.596,6.475-1.343,8.328-2.238
			c1.85-0.895,3.193-2.297,4.029-4.209l43.161-103.871c0.834-2.029,1.97-3.044,3.403-3.044c0.476,0,1.192,0.12,2.149,0.358
			l43.34,107.095c0.716,1.673,2.328,2.986,4.835,3.94c2.507,0.957,4.953,1.612,7.343,1.97c0.716,0.241,1.281,0.568,1.701,0.985
			c0.417,0.42,0.627,1.164,0.627,2.238c0,0.717-0.121,1.674-0.358,2.866c-3.822-0.241-7.583-0.448-11.283-0.627
			c-3.702-0.179-7.164-0.268-10.387-0.268c-3.344,0-7.164,0.089-11.461,0.268c-4.298,0.179-8.18,0.386-11.641,0.627
			c-0.241-1.192-0.358-2.149-0.358-2.866c0-1.074,0.207-1.818,0.626-2.238c0.417-0.417,0.806-0.627,1.164-0.627
			c3.104-0.596,5.611-1.282,7.522-2.06c1.908-0.775,2.865-1.939,2.865-3.492c0-0.716-0.24-1.612-0.716-2.687L391.861,539.528z
			 M388.996,532.185l-16.655-43.877l-17.372,43.877H388.996z"/>
		<path fill="#000100" d="M552.862,469.146c0.238-0.476,0.507-0.954,0.806-1.433c0.296-0.476,0.806-0.834,1.522-1.075
			c0.716-0.238,1.67-0.448,2.866-0.626c1.191-0.18,2.865-0.269,5.014-0.269c0.955,0,2.209-0.028,3.762-0.089
			c1.551-0.059,3.224-0.118,5.014-0.179c1.791-0.059,3.61-0.148,5.463-0.269c1.85-0.118,3.551-0.238,5.104-0.358
			c0.238,1.195,0.359,2.149,0.359,2.866c0,1.911-0.6,2.927-1.791,3.044c-4.299,0.599-7.164,1.405-8.597,2.417
			c-1.433,1.016-2.149,2.359-2.149,4.03c0,0.12,0.09,1.701,0.269,4.746c0.178,3.045,0.447,8.121,0.805,15.223
			c0.359,7.105,0.807,16.566,1.344,28.386c0.537,11.82,1.164,26.505,1.881,44.056c0.117,2.269,0.895,3.94,2.328,5.014
			c1.432,1.075,4.356,1.97,8.775,2.687c0.596,0.12,1.043,0.448,1.343,0.985c0.296,0.538,0.448,1.164,0.448,1.88
			c0,0.717-0.121,1.674-0.359,2.866c-4.18-0.241-7.969-0.448-11.371-0.627c-3.403-0.179-6.537-0.268-9.402-0.268
			c-1.195,0-2.687,0.028-4.478,0.089c-1.791,0.059-3.671,0.118-5.642,0.179c-1.97,0.059-3.912,0.148-5.82,0.269
			c-1.911,0.118-3.581,0.238-5.014,0.358c-0.241-1.192-0.358-2.149-0.358-2.866c0-1.908,0.596-2.865,1.791-2.865
			c4.774-0.954,8.028-1.908,9.76-2.865c1.729-0.954,2.597-2.566,2.597-4.836c0-0.358-0.09-2.566-0.269-6.626
			c-0.179-4.058-0.419-9.013-0.716-14.864c-0.3-5.849-0.6-12.178-0.897-18.983c-0.299-6.806-0.598-13.222-0.894-19.252
			c-0.3-6.027-0.568-11.221-0.806-15.581c-0.241-4.357-0.358-7.013-0.358-7.97l-39.22,94.738c-0.478,1.075-0.926,1.881-1.343,2.418
			c-0.42,0.537-0.985,0.806-1.702,0.806c-0.836,0-1.374-0.062-1.612-0.179l-43.876-100.648c-0.121,1.195-0.269,4.091-0.448,8.686
			c-0.179,4.598-0.42,10.06-0.716,16.387c-0.3,6.33-0.627,13.015-0.985,20.058c-0.358,7.046-0.688,13.552-0.985,19.521
			c-0.299,5.972-0.537,10.986-0.716,15.044c-0.179,4.06-0.269,6.209-0.269,6.447c0,3.702,4.058,6.268,12.178,7.701
			c1.192,0.12,1.791,1.075,1.791,2.865c0,0.717-0.12,1.674-0.358,2.866c-3.224-0.241-6.389-0.448-9.492-0.627
			c-3.106-0.179-5.852-0.268-8.238-0.268c-1.911,0-4.477,0.089-7.701,0.268c-3.224,0.179-6.268,0.386-9.134,0.627
			c-0.241-1.192-0.358-2.149-0.358-2.866c0-1.67,0.596-2.625,1.79-2.865c3.224-0.596,5.82-1.461,7.79-2.597
			c1.97-1.133,3.073-2.835,3.313-5.104c0-1.075,0.118-4.088,0.358-9.044c0.238-4.953,0.506-10.834,0.806-17.64
			c0.297-6.805,0.627-14.028,0.985-21.669c0.358-7.64,0.686-14.714,0.985-21.222c0.296-6.506,0.537-11.879,0.716-16.118
			c0.179-4.237,0.269-6.417,0.269-6.537c0-1.909-0.747-3.314-2.239-4.209c-1.494-0.896-4.329-1.701-8.506-2.417
			c-1.195-0.118-1.791-1.133-1.791-3.044c0-0.716,0.118-1.671,0.358-2.866c1.55,0.121,3.314,0.241,5.283,0.358
			c1.97,0.12,3.94,0.21,5.91,0.269c1.97,0.061,3.851,0.121,5.641,0.179c1.791,0.061,3.224,0.089,4.298,0.089
			c2.149,0,3.82,0.089,5.015,0.269c1.192,0.179,2.149,0.389,2.865,0.626c0.716,0.241,1.223,0.599,1.522,1.075
			c0.296,0.478,0.565,0.957,0.806,1.433l38.325,89.366L552.862,469.146z"/>
		<path fill="#000100" d="M644.913,529.857H631.66v39.399c0,2.628,1.224,4.419,3.671,5.373c2.446,0.957,6.18,1.732,11.193,2.328
			c1.434,0.241,2.149,1.254,2.149,3.045c0,0.837-0.12,1.853-0.358,3.044c-3.224-0.241-7.135-0.448-11.73-0.627
			c-4.598-0.179-9.106-0.268-13.521-0.268c-3.106,0-6.688,0.089-10.744,0.268c-4.061,0.179-7.881,0.386-11.463,0.627
			c-0.24-1.192-0.357-2.149-0.357-2.866c0-1.67,0.654-2.625,1.97-2.865c4.536-0.716,7.729-1.581,9.581-2.597
			c1.85-1.013,2.775-2.714,2.775-5.104v-91.157c0-2.267-0.867-3.968-2.596-5.104c-1.732-1.133-5.104-1.998-10.119-2.597
			c-1.195-0.118-1.791-1.133-1.791-3.044c0-0.716,0.117-1.671,0.358-2.866c3.582,0.241,7.281,0.448,11.104,0.627
			c3.819,0.179,7.46,0.269,10.925,0.269h24.177c12.895,0,22.624,2.837,29.192,8.507c6.565,5.672,9.85,13.342,9.85,23.013
			c0,2.627-0.448,5.372-1.344,8.238c-0.896,2.866-2.27,5.672-4.119,8.418c-1.852,2.748-4.239,5.283-7.164,7.611
			c-2.926,2.328-6.357,4.208-10.297,5.641l29.908,41.549c2.266,3.106,4.773,5.255,7.521,6.447c2.745,1.195,5.31,2.09,7.701,2.686
			c1.074,0.241,1.611,1.075,1.611,2.507c0,0.957-0.12,2.029-0.357,3.224c-2.748-0.241-6.09-0.448-10.029-0.626
			c-3.94-0.179-7.584-0.269-10.925-0.269c-2.507,0-5.046-1.074-7.611-3.224c-2.569-2.149-4.986-4.894-7.253-8.238L644.913,529.857z
			 M641.151,522.515c8.356,0,14.804-1.76,19.342-5.283c4.537-3.52,6.807-9.699,6.807-18.536c0-3.699-0.479-7.102-1.434-10.208
			c-0.957-3.103-2.479-5.79-4.566-8.059c-2.09-2.267-4.836-4.058-8.238-5.373c-3.402-1.312-7.553-1.97-12.447-1.97h-8.954v49.429
			H641.151z"/>
		<path fill="#000100" d="M814.689,538.633c0,6.805-0.777,12.984-2.328,18.536c-1.553,5.552-4.149,10.359-7.79,14.417
			c-3.643,4.06-8.448,7.194-14.417,9.402c-5.971,2.208-13.432,3.313-22.386,3.313c-10.27,0-18.566-1.284-24.894-3.85
			c-6.33-2.566-11.193-5.938-14.596-10.119c-3.402-4.178-5.672-8.982-6.805-14.417c-1.137-5.431-1.702-10.952-1.702-16.565v-60.891
			c0-2.387-0.837-4.119-2.507-5.193c-1.674-1.075-4.836-1.909-9.492-2.507c-1.195-0.118-1.791-1.133-1.791-3.044
			c0-0.716,0.117-1.671,0.358-2.866c3.582,0.241,7.253,0.448,11.015,0.627c3.76,0.179,7.37,0.269,10.834,0.269
			c3.103,0,6.744-0.089,10.925-0.269c4.178-0.179,8.06-0.386,11.641-0.627c0.237,1.195,0.358,2.149,0.358,2.866
			c0,1.911-0.6,2.927-1.791,3.044c-4.539,0.599-7.791,1.433-9.76,2.507c-1.971,1.074-2.955,2.807-2.955,5.193v56.951
			c0,12.418,2.477,21.939,7.432,28.564c4.953,6.627,13.342,9.94,25.162,9.94c6.686,0,12.357-0.744,17.014-2.238
			c4.656-1.492,8.477-3.789,11.461-6.895c2.983-3.104,5.133-7.133,6.447-12.089c1.312-4.953,1.971-10.893,1.971-17.819v-56.413
			c0-2.387-0.896-4.119-2.687-5.193c-1.791-1.075-5.015-1.909-9.671-2.507c-1.315-0.118-1.97-1.133-1.97-3.044
			c0-0.716,0.117-1.671,0.358-2.866c3.461,0.241,6.833,0.448,10.118,0.627c3.282,0.179,6.117,0.269,8.507,0.269
			c2.865,0,5.759-0.089,8.686-0.269c2.924-0.179,5.82-0.386,8.685-0.627c0.238,1.195,0.359,2.149,0.359,2.866
			c0,0.599-0.18,1.226-0.538,1.88c-0.358,0.658-0.837,1.046-1.433,1.164c-4.418,0.478-7.494,1.285-9.223,2.417
			c-1.732,1.136-2.598,2.897-2.598,5.283V538.633z"/>
		<path fill="#000100" d="M942.915,569.615c0,2.39,0.774,4.029,2.328,4.925c1.55,0.896,4.656,1.822,9.312,2.776
			c1.191,0.241,1.791,1.075,1.791,2.507c0,0.957-0.121,2.032-0.359,3.224c-2.985-0.241-6.502-0.448-10.549-0.627
			c-4.047-0.179-7.664-0.268-10.852-0.268c-3.308,0-6.836,0.089-10.586,0.268s-7.412,0.386-10.994,0.627
			c-0.241-1.192-0.358-2.267-0.358-3.224c0-1.433,0.596-2.267,1.79-2.507c4.416-0.834,7.461-1.729,9.135-2.687
			c1.67-0.954,2.507-2.625,2.507-5.014v-43.34h-56.234v43.34c0,2.39,0.775,4.029,2.328,4.925c1.55,0.896,4.657,1.822,9.313,2.776
			c1.312,0.241,1.969,1.075,1.969,2.507c0,0.957-0.119,2.032-0.357,3.224c-3.105-0.241-6.688-0.448-10.746-0.627
			c-4.06-0.179-7.7-0.268-10.924-0.268c-3.344,0-6.867,0.089-10.566,0.268c-3.702,0.179-7.404,0.386-11.104,0.627
			c-0.24-1.192-0.357-2.267-0.357-3.224c0-1.433,0.596-2.267,1.79-2.507c4.536-0.834,7.64-1.729,9.313-2.687
			c1.67-0.954,2.507-2.625,2.507-5.014v-90.977c0-1.192-0.151-2.177-0.448-2.955c-0.299-0.775-0.867-1.46-1.701-2.06
			c-0.836-0.596-2-1.102-3.492-1.522c-1.494-0.417-3.434-0.865-5.82-1.343c-1.195-0.118-1.791-1.075-1.791-2.866
			c0-0.833,0.117-1.85,0.358-3.044c2.983,0.241,6.447,0.448,10.388,0.627c3.94,0.179,7.522,0.269,10.744,0.269
			c3.342,0,6.865-0.089,10.566-0.269c3.699-0.179,7.344-0.386,10.925-0.627c0.237,1.195,0.358,2.211,0.358,3.044
			c0,1.674-0.6,2.628-1.791,2.866c-4.656,0.716-7.731,1.612-9.223,2.686c-1.494,1.075-2.239,2.807-2.239,5.194v40.116h56.234
			v-40.116c0-2.029-0.716-3.671-2.149-4.925c-1.433-1.254-4.477-2.239-9.133-2.955c-1.316-0.118-1.971-1.075-1.971-2.866
			c0-0.833,0.117-1.85,0.358-3.044c2.983,0.241,6.47,0.448,10.457,0.627c3.987,0.179,7.575,0.269,10.765,0.269
			c3.309,0,6.775-0.089,10.404-0.269s7.295-0.386,10.997-0.627c0.238,1.195,0.358,2.211,0.358,3.044
			c0,1.674-0.599,2.628-1.791,2.866c-4.656,0.716-7.732,1.612-9.223,2.686c-1.494,1.075-2.238,2.807-2.238,5.194V569.615z"/>
	</g>
	<g>
		<path fill="#000100" d="M501.438,632.791c-0.994,0.497-2.982,0.994-5.53,0.994c-5.903,0-10.345-3.728-10.345-10.594
			c0-6.555,4.442-10.997,10.935-10.997c2.609,0,4.256,0.559,4.971,0.932l-0.653,2.206c-1.025-0.497-2.485-0.87-4.225-0.87
			c-4.908,0-8.17,3.138-8.17,8.637c0,5.126,2.951,8.419,8.046,8.419c1.647,0,3.324-0.342,4.412-0.87L501.438,632.791z"/>
		<path fill="#000100" d="M504.822,612.815c1.367-0.28,3.324-0.435,5.188-0.435c2.889,0,4.753,0.528,6.058,1.708
			c1.056,0.932,1.647,2.361,1.647,3.977c0,2.765-1.74,4.598-3.945,5.344v0.093c1.615,0.559,2.578,2.051,3.075,4.225
			c0.683,2.92,1.181,4.94,1.616,5.747h-2.796c-0.342-0.59-0.808-2.392-1.398-5.002c-0.622-2.889-1.74-3.977-4.194-4.069h-2.547
			v9.071h-2.703V612.815z M507.524,622.352h2.765c2.889,0,4.722-1.584,4.722-3.977c0-2.703-1.957-3.883-4.815-3.914
			c-1.305,0-2.237,0.124-2.672,0.249V622.352z"/>
		<path fill="#000100" d="M532.376,623.657h-8.14v7.549h9.071v2.268h-11.774v-20.939h11.308v2.268h-8.606v6.617h8.14V623.657z"/>
		<path fill="#000100" d="M540.203,626.888l-2.175,6.586h-2.796l7.114-20.939h3.262l7.145,20.939h-2.889l-2.237-6.586H540.203z
			 M547.068,624.775l-2.05-6.027c-0.466-1.367-0.777-2.609-1.087-3.821h-0.062c-0.311,1.243-0.652,2.517-1.056,3.79l-2.05,6.058
			H547.068z"/>
		<path fill="#000100" d="M557.411,614.834h-6.368v-2.299h15.503v2.299h-6.4v18.64h-2.734V614.834z"/>
		<path fill="#000100" d="M571.576,612.535v20.939h-2.702v-20.939H571.576z"/>
		<path fill="#000100" d="M580.896,633.474l-6.836-20.939h2.921l3.263,10.314c0.9,2.827,1.678,5.375,2.236,7.829h0.062
			c0.59-2.423,1.459-5.064,2.392-7.798l3.542-10.345h2.889l-7.486,20.939H580.896z"/>
		<path fill="#000100" d="M604.473,623.657h-8.14v7.549h9.071v2.268H593.63v-20.939h11.309v2.268h-8.606v6.617h8.14V623.657z"/>
		<path fill="#000100" d="M618.2,612.535v12.396c0,4.691,2.082,6.679,4.878,6.679c3.107,0,5.095-2.05,5.095-6.679v-12.396h2.734
			v12.209c0,6.431-3.387,9.071-7.922,9.071c-4.287,0-7.519-2.454-7.519-8.947v-12.333H618.2z"/>
		<path fill="#000100" d="M635.595,633.474v-20.939h2.952l6.71,10.594c1.554,2.455,2.766,4.66,3.76,6.804l0.062-0.031
			c-0.249-2.796-0.31-5.344-0.31-8.606v-8.761h2.547v20.939h-2.734l-6.648-10.625c-1.459-2.33-2.857-4.722-3.914-6.99l-0.094,0.031
			c0.156,2.641,0.219,5.157,0.219,8.637v8.947H635.595z"/>
		<path fill="#000100" d="M658.737,612.535v20.939h-2.703v-20.939H658.737z"/>
		<path fill="#000100" d="M681.353,622.787c0,7.208-4.38,11.029-9.723,11.029c-5.53,0-9.414-4.287-9.414-10.625
			c0-6.648,4.133-10.997,9.725-10.997C677.656,612.193,681.353,616.574,681.353,622.787z M665.106,623.129
			c0,4.474,2.423,8.481,6.679,8.481c4.287,0,6.711-3.946,6.711-8.699c0-4.163-2.175-8.513-6.68-8.513
			C667.343,614.399,665.106,618.531,665.106,623.129z"/>
		<path fill="#000100" d="M684.86,633.474v-20.939h2.952l6.71,10.594c1.554,2.455,2.766,4.66,3.76,6.804l0.062-0.031
			c-0.249-2.796-0.31-5.344-0.31-8.606v-8.761h2.547v20.939h-2.734l-6.648-10.625c-1.459-2.33-2.857-4.722-3.914-6.99l-0.094,0.031
			c0.156,2.641,0.219,5.157,0.219,8.637v8.947H684.86z"/>
	</g>
	<path fill="none" stroke="#FFFFFF" stroke-miterlimit="10" d="M593.693,236.037"/>
	<g>
		<path d="M715.072,354.413c0.648-1.568,0.985-3.903,1.351-5.879c0.362-1.957,0.57-3.942,0.848-5.916
			c-0.154-0.292-0.656-0.575-1.092-0.313c-0.575,2.147-1.332,4.346-1.294,6.482c0.029,1.628-0.243,3.084-1.107,4.212
			C714,353.749,714.52,354.307,715.072,354.413z"/>
		<path d="M720.542,359.348c0.89-3.328,2.508-8.355,2.945-14.016c0.04-0.516-0.938-0.736-1.132-0.081
			c-0.87,2.929-2.57,8.68-3.406,13.115C719.188,359.022,719.817,359.17,720.542,359.348z"/>
		<path d="M721.299,359.61c0.836,0.304,2.696,1.221,3.37,1.439C723.881,358.933,722.266,358.606,721.299,359.61z"/>
		<path d="M715.436,355.136c0.158,0.464,1.702,2.771,2.684,2.662C718.075,355.54,716.681,354.507,715.436,355.136z"/>
		<path d="M710.624,349.026c-0.119,2.597,1.321,3.203,1.779,3.203C713.079,350.074,712.004,348.826,710.624,349.026z"/>
		<path d="M735.409,249.019c-7.455,5.464-15.892,2.845-19.167,0.732c-1.09-2.425-4.029-5.917-3.883-11.707
			c5.848-9.077,13.878-6.459,17.719-2.618c4.386-11.956-2.522-22.161-11.804-25.561c-4.867,0.19-8.3,1.529-8.818,5.576
			c-0.466,3.641-1.072,8.697-9.825,12.793l-0.177-0.555c7.837-3.973,8.3-9.105,8.818-12.576c0.363-2.429,1.033-5.31,6.852-6.205
			c-0.807-0.838-8.778-8.833-19.121-8.293c-6.836,0.354-16.816,3.032-24.144,6.849c0,0-21.615,8.214-28.347,0.267
			c-0.766,10.055,12.896,11.177,12.896,11.177s-14.41,1.298-20.808-3.551c-0.619,9.264,5.977,12.293,8.24,13.746
			c-1.095,0.737-15.449,16.764-22.301,16.241c1.469,1.644,4.786,2.458,8.205,2.226c0,0-7.768,10.954-14.448,13.944
			c4.92-2.946,10.322-10.243,11.727-12.77c-2.035,0.223-6.865-0.359-9.869-4.141c2.182-0.098,7.709-1.589,15.107-8.554
			c0.117-0.11,0.262-0.258,0.418-0.422c-2.784-27.791,10.89-73.678,32.301-100.537c1.333-1.672,0.551-4.41-2.515-4.288
			c-5.991,0.237-13.851,8.115-15.919,11.312c-0.574-3.516-4.27-2.997-5.343-2.472c-5.154,2.524-8.433,10.077-10.448,14.156
			c-0.975-4.113-4.864-3.729-7.221-1.262c-3.8,3.976-6.755,12.92-7.443,16.005c-1.611-4.835-5.283-4.21-7.5-1.129
			c-1.103,1.535-1.998,3.308-2.593,5.102c-1.029,3.13-1.501,7.457-1.848,10.682c-2.104-4.249-6.01-3.646-7.566-0.182
			c-1.553,3.459-1.45,10.566-1.312,14.298c-2.12-3.958-6.285-3.473-7.787,0.499c-2.162,5.719-0.617,12.534,0.191,15.715
			c-3.55-3.101-7.252-2.024-7.433,3.357c-0.13,3.879,1.504,9.594,3.073,12.333c-4.391-2.219-6.373-0.149-6.622,3.32
			c-0.28,3.904,3.454,9.462,5.351,11.661c-5.531,0.272-6.291,4.912-3.275,9.037c1.366,1.868,3.741,4.055,5.16,5.238
			c-3.617,1.536-4.593,3.561-2.375,6.504c1.97,2.607,4.642,4.677,7.012,6.852c-0.253,2.247-0.241,3.633-0.013,4.033
			c-0.005,0.031-0.011,0.061-0.016,0.092c-1.039,0.616-2.24,1.328-3.684,2.184c-1.56-1.293-3.734-2.896-4.813-4.037
			c-3.224-3.41-7.658-10.19-9.153-16.389c-3.16-13.109-10.59-23.238-21.802-31.549c-8.329-6.174-22.791-20.805-26.564-29.27
			c-4.68-10.502-5.774-22.326-3.23-35.479c1.052-5.425,2.382-10.798,3.5-16.209c0.509-2.462-2.023-4.819-5.078-2.899
			c-5.969,3.752-9.366,16.39-9.601,20.861c-2.645-3.248-6.11-0.553-6.896,0.611c-3.776,5.593-2.694,15.215-2.357,20.555
			c-3.404-3.622-7.145-0.952-8.102,2.945c-1.544,6.281,0.683,17.131,1.791,20.68c-4.476-3.985-7.854-1.196-8.308,3.244
			c-0.226,2.211-0.098,4.543,0.346,6.721c0.785,3.794,2.839,8.482,4.375,11.974c-4.635-3.1-8.264-0.196-7.82,4.249
			c0.443,4.437,4.713,11.621,7.041,15.346c-4.481-2.793-8.443,0.142-7.647,5.072c1.146,7.097,6.715,13.141,9.402,15.91
			c-5.436-1.082-8.58,2.186-5.611,7.778c2.14,4.031,7.156,8.901,10.36,10.774c-5.777,0.311-6.585,3.582-4.806,7.265
			c2.002,4.145,9.066,7.623,12.288,8.753c-5.479,3.518-3.536,8.695,1.956,11.133c2.488,1.104,6.19,1.942,8.33,2.316
			c-2.787,3.685-2.596,6.323,1.39,8.023c3.828,1.628,8.139,2.118,12.083,3.077c0.727,1.992,1.592,4.359,2.243,6.141
			c-3.655,2.185-7.501,4.276-11.123,6.698c-3.846,2.572-7.27,5.838-11.276,8.083c-3.663,2.059-7.772,4.161-11.835,4.503
			c-12.557,1.054-24.23-1.241-31.94-12.683c-5.2-7.725-2.7-15.173,6.343-17.187c5.799-1.291,18.647-5.103,20.597-13.119
			c0.613-2.52,1.106-6.5-1.949-8.857c-0.131,1.746-0.992,3.157-1.426,3.346c0-6.284-3.666-9.601-7.041-9.717
			c0.618,1.235-0.143,3.828,0.611,5.237c-1.775-3.317-3.753-6.11-10.887-6.716c2.071,1.741,1.897,5.087,5.085,7.972
			c-0.89-0.58-5.982-1.431-7.553,1.537c7.39,2.211,12.161,10.823,5.517,12.72c-2.82,0.805-5.777,1.192-8.505,2.213
			c-8.891,3.315-13.153,12.795-9.522,21.533c1.276,3.068,3.063,6.152,5.333,8.547c10.044,10.593,22.873,13.727,36.837,11.996
			c6.467-0.807,12.726-3.283,18.639-4.878c-1.845,3.149-4.034,6.88-6.814,11.624c-2.421-1.088-4.957-2.224-7.498-3.349
			c-2.295-1.015-4.53-1.423-6.576,0.579c-2.842,2.782-4.572,5.766-5.578,9.942c-1.337,5.551-5.021,10.5-7.371,15.852
			c-1.092,2.488-1.743,5.291-1.986,8.005c-0.185,2.092,0.887,4.266,0.861,6.401c-0.085,7.42,4.738,11.382,11.869,9.6
			c0.512-0.127,1.218,0.243,1.753,0.535c4.739,2.576,5.594,2.484,9.118-1.153c6.001,2.599,7.886,2.207,10.585-2.18
			c0.037,0.926,0.779,1.838,1.492,1.693c1.438-4.033-0.745-9.81-4.39-12.111c-2.606-1.65-5.233-3.272-7.851-4.91
			c-2.046-1.281-3.191-5.181-1.699-7.299c1.338-1.897,3.352-2.102,5.897-1.744c5.418,0.756,10.454,4.733,16.26,2.206
			c2.417-1.047,4.628-2.771,7.129-3.403c12.527-3.166,16.258-10.52,16.6-11.328c0.732,0.547,1.5,1.12,2.224,1.662
			c-2.533,5.677-2.925,8.297,2.118,11.856c3.172,2.235,6.132,4.844,8.899,7.575c2.32,2.29,4.155,5.054,6.329,7.498
			c3.595,4.033,8.869,5.158,13.535,7.111c2.842,1.193,6.453,0.906,9.686,0.712c3.418-0.209,6.822-0.972,10.174-1.737
			c2.283-0.524,4.471-1.479,6.793-2.272c1.253-3.644-1.307-10.511-7.104-12.111c-5.261-1.453-10.815-0.479-16.279-2.262
			c-4.352-1.418-5.796-4.777-9.023-7.04c2.69-2.489,5.423-2.396,8.27-2.047c7.809,0.954,13.671-2.847,16.148-10.285
			c0.243-0.728,0.938-1.671,1.598-1.847c8.18-2.147,16.363-4.282,24.614-6.119c1.257-0.281,2.94,0.783,4.271,1.51
			c1.919,1.05,3.688,2.378,5.541,3.549c1.112,0.706,2.364,1.219,3.384,2.025c4.045,3.205,7.843,6.752,12.066,9.698
			c10.759,7.516,20.224,16.034,25.587,28.464c0.942,2.185,3.59,4.856,5.679,5.072c4.171,0.429,6.644,2.664,8.805,5.534
			c4.031,5.367,10.079,6.3,15.943,7.641c0.984,0.227,2.152-0.419,3.243-0.591c0.786-0.126,1.691-0.398,2.368-0.143
			c4.904,1.848,8.055-2.276,12.559-2.276c0.754,0,1.172-0.532,1.442-0.726c1.066-0.766,3.294-1.837,3.448-2.399
			c2.324-8.495-3.75-12.404-11.748-13.605c-2.687-0.404-5.867-0.006-7.967-1.33c-5.052-3.184-10.586-6.009-13.63-11.686
			c-0.551-1.021-1.877-1.6-2.739-2.488c-0.682-0.707-1.577-1.506-1.735-2.377c-0.84-4.689-3.498-8.359-6.685-11.564
			c-8.019-8.072-8.343-13.585-13.992-23.075c0,0-4.836-7.575-6.002-9.662c1.793,0.738,2.306,1.884,6.292,6.291
			c0.705-2.756,2.464-4.489,3.875-5.131c3.07-1.395,11.363-3.773,18.093-10.134c3.556-3.356,13.203-5.157,17.561-6.369
			c0.109,0.66,1.405,1.484,2.02,3.09c-0.016-0.003-0.031-0.005-0.047-0.008c-2.126,2.132-4.404,4.189-6.105,6.673
			c-0.162,0.237-0.039,0.667-0.052,1.003c-0.097,2.188-0.422,4.401-0.219,6.567c0.172,1.876,0.579,5.053,1.51,5.296
			c3.314,0.879,4.464,3.494,6.221,5.74c0.446,0.568,1.31,0.872,2.047,1.125c1.644,0.571,3.328,1.034,4.993,1.536
			c1.11,0.422,2.597,0.246,3.883-0.302c0.275-0.118,0.528-0.231,0.793-0.347c0.005-0.001,0.019-0.003,0.019-0.003
			c1.218-0.598,2.964-1.056,4.086-2.197c0.005-0.005,0.006-0.01,0.011-0.015c0.556-0.462,0.964-0.973,1.212-1.602
			c1.022-2.602,1.19-7.156,0.435-10.512c-0.738-3.292-0.994-6.207,0.267-8.893c0.541-1.329-1.504-7.394-2.703-9.657
			c-1.357-3.098-2.087-6.711-2.971-10.495c-3.712-15.892-13.312-12.791-22.221-10.033c-2.185,0.676-6.699,1.419-10.921,1.747
			c-1.178-1.887-4.782-3.994-4.128-6.382c0.882-3.22-4.324-7.245-3.551-11.602c3.461-1.876,5.419-4.65,6.063-6.58
			c0.436,0.669,1.687,1.106,2.358,2.541c2.276-2.918,2.587-8.971,2.82-11.561c0.407,0.378,1.746,0.698,2.822,1.658
			c1.63-4.306-0.153-9.936-0.902-12.074c6.575,3.142,7.485-3.013,7.485-3.013c-5.376,0.858-7.384-4.175-10.54-6.101
			c-4.364-2.662-10.3-3.36-13.618-2.679c-14.627,3.003-20.685,19.394-22.32,34.4c-0.547-17.013,8.252-32.655,20.277-35.592
			c3.266-0.798,10.99-2.456,25.436,7.407c3.944,2.693,10.561,8.205,19.125,8.657c1.416-2.605,0.689-8.046-1.958-12.948
			C724.696,258.323,732.901,256.258,735.409,249.019z M502.349,399.571c0.596,0.154,0.867,1.532,1.602,2.947
			c0.963,0.378,3.844,1.978,4.076,3.345c-0.757-0.203-1.363-0.295-1.826,0.246c2.896,0.949,6.409,3.1,4.881,7.159
			c-0.436-0.873-1.123-1.679-2.138-2.182c0.305,0.96-0.346,2.647-1.054,3.706c-1.064-0.635-2.434-1.077-3.167-2.014
			c-0.497-0.633-0.095-1.965-0.095-3.212c-1.604-2.335-4.019-4.023-6.299-5.292c2.164,2.753,5.073,7.902,2.426,10.434
			c-0.495-1.397-0.936-2.488-2.153-3.099c-0.212,1.512-1.015,2.825-1.636,3.527c-2.161-0.428-3.127-2.836-2.93-4.853
			c0.238-2.451-0.657-3.741-2.417-5.08c-1.208-0.918-2.081-2.277-3.57-3.08c0.155,0.938-0.446,2.234,0.574,3.416
			c2.134,2.473,5.032,3.874,2.326,7.54c-0.233-0.815-1.084-1.893-2.211-2.473c0.109,1.394-0.087,2.502-1.015,3.932
			c-3.961-1.095-6.153-5.336-6.102-9.621c0.023-1.885-0.925-3.806-0.76-5.654c0.214-2.4,0.791-4.878,1.757-7.076
			c2.072-4.731,5.33-9.104,6.512-14.009c0.893-3.69,2.419-6.327,4.931-8.785c1.624-1.592,3.388-1.456,5.2-0.762
			c-0.351,0.193-0.701,0.427-1.04,0.762c-2.51,2.458-4.039,5.095-4.928,8.785c-1.003,4.165-3.497,7.947-5.499,11.888
			c0.802-0.427,1.673-0.663,2.643-0.498c0.328,0.056,0.874,0.925,1.518,1.612c0.454-0.609,0.467-2.241,1.541-2.074
			c2.316,0.362,1.389,4.101,2.194,6.471c0.419-1.228,0.104-2.636,1.027-3.013c0.297-0.121,0.745,0.234,0.79,0.423
			C498.195,395.856,498.845,398.661,502.349,399.571z M603.794,403.196c-0.859-0.243-1.898-0.149-3.436-0.966
			c-1.169-0.621-2.62-2.208-4.314-3.638C600.491,398.747,602.207,400.168,603.794,403.196z M597.877,404.417
			c-0.859-0.242-1.895-0.15-3.433-0.966c-1.169-0.621-2.622-2.209-4.317-3.639C594.574,399.968,596.293,401.389,597.877,404.417z
			 M552.153,371.563c-2.364-0.229-5.911-0.786-7.659-1.544c-1.134,4.384-3.773,7.637-8.365,9.715
			c-2.461,1.115-6.418,2.786-8.597,4.521c-0.055-0.076-0.107-0.148-0.156-0.224c2.939-5.39,12.937-8.024,17.655-16.87
			c0,0,0.973,1.771,2.361,2.313c2.098,0.819,13.194,1.896,15.371,0.761C564.485,369.338,564.691,372.782,552.153,371.563z
			 M591.006,294.783c-8.017-3.019-13.848-9.229-19.214-18.122c-7.554-12.519-7.903-31.489-20.855-42.767
			c-25.5-22.205-29.763-30.474-28.144-30.896c0.945-0.246,1.935,6.62,27.983,28.403c6.976,5.41,11.592,12.083,14.328,20.379
			c2.048,6.203,4.461,12.295,6.98,18.328c4.542,10.876,13.308,17.062,24.072,20.697c4.785,1.618,17.224,4.324,20.806,6.683
			C611.983,298.969,602.12,298.969,591.006,294.783z M693.943,334.552c3.557-3.355,13.813-5.913,18.167-7.124
			c0.136,0.827,0.368,1.6,0.667,2.322c1.132,2.738,1.842,4.829,2.18,7.564c0.262,1.808-1.886,2.659-2.861,4.193
			c1.72-0.786,5.176-1.019,5.706,0.261c3.627-2.102,8.789-4.354,9.077,1.979c0.281,2.036,1.177,3.092,1.95,7.07
			c0.667,3.434-0.038,5.78-0.821,6.986c-0.467,0.719,0.617-4.135-0.46-8.47c-0.477-1.923-2.878,5.623-1.92,7.419
			c0.718,1.347,0.531,2.547-0.133,4.561c-0.577,0.674-2.081,1.086-3.386,0.696l0,0c-1.249-0.367-2.499-0.734-3.73-1.161
			c-0.734-0.251-1.601-0.556-2.047-1.125c-1.756-2.245-2.903-4.86-6.221-5.739c-0.929-0.244-1.336-3.419-1.51-5.296
			c-0.201-2.167,0.122-4.378,0.219-6.567c0.013-0.337-0.107-0.765,0.05-1.004c1.234-1.799,2.773-3.372,4.336-4.914
			c-0.204-3.426-2.357-6.133-2.493-6.96c-4.356,1.213-13.526,2.925-17.081,6.278C689.953,338.999,689.565,338.69,693.943,334.552z
			 M680.676,289.28c-8.321-13.966-2.211-30.201,7.811-32.412C684.163,259.102,672.18,271.125,680.676,289.28z M684.109,256.636
			c-16.169,10.671-17.516,27.429-15.391,37.62C663.961,278.675,670.783,260.884,684.109,256.636z M726.072,419.736
			c-2.86-2.264-5.187-5.523-8.197-6.169C721.233,411.997,724.614,414.823,726.072,419.736z M721.302,421.727
			c-0.389,0.341-1.213,0.747-2.7-0.099c-1.781-1.013-5.392-4.506-8.105-5.569C715.478,413.276,718.071,415.506,721.302,421.727z
			 M713.41,424.41c-3-1.586-4.978-5.135-8.197-6.168C708.574,416.672,711.952,419.499,713.41,424.41z M691.915,408.697
			c-0.213,0.201-0.428,0.405-0.638,0.608c-6.673-1.056-7.966-9.364-11.786-14.202C683.556,397.687,687.135,406.765,691.915,408.697z
			 M680.92,406.82c0.941,2.186,2.054,3.086,4.033,3.785c3.796,1.34,6.478,2.979,8.641,5.848c3.565,4.748,10.519,7,15.718,8.158
			c-0.472,0.566-0.851,0.804-2.673,0.456c-5.911-1.129-11.914-2.273-15.946-7.641c-2.16-2.869-4.631-5.103-8.806-5.534
			c-2.088-0.214-4.734-2.884-5.679-5.07c-5.361-12.43-14.822-20.949-25.584-28.463c-4.222-2.946-8.021-6.494-12.064-9.7
			c-1.02-0.805-2.273-1.319-3.385-2.024c-1.852-1.17-5.415-4.209-11.35-5.314c4.946-0.524,9.189,1.038,10.516,1.765
			c1.92,1.049,3.69,2.379,5.545,3.549c1.11,0.705,2.362,1.219,3.384,2.024c4.044,3.206,7.842,6.754,12.063,9.7
			C666.094,385.872,675.557,394.391,680.92,406.82z M689.695,218.787c-0.197,1.4-0.572,4.488-0.111,4.766
			c0.678,0.409,2.374-1.931,2.87-3.723c0.12-0.431,0.201-0.822,0.257-1.18c0.429,0.023,0.858,0.06,1.288,0.124
			c-0.393,2.136-0.789,6.354-5.761,6.651c-3.766,0.225-4.855-2.775-5.159-4.483C685.166,219.904,687.402,219.113,689.695,218.787z
			 M674.47,228.941c0,0,0.544-0.638,1.491-1.578c5.913,0.362,18.619,7.176,22.413-5.278c0.155,0.13,0.311,0.247,0.469,0.387
			C695.101,237.826,679.321,227.427,674.47,228.941z M721.763,262.843c0,0-9.645-2.753-30.833-16.319
			c7.556-9.621,14.378-14.877,20.889-17.262c3.627-1.329,6.738-2.15,10.663-1.571c3.238,0.477,5.283,1.8,6.549,3.938
			c-2.226-1.658-4.844-2.575-6.867-2.68c-4.381-0.229-7.161,1.656-8.868,3.248c-6.11,5.695,0.781,16.143,0.781,16.143
			s-3.637-2.585-8.874-8.113c-3.579,0.669-7.914,2.124-10.454,3.975c7.748,5.946,18.804,11.678,24.86,13.183
			C721.408,260.738,721.763,262.843,721.763,262.843z"/>
	</g>
	<g>
		<path fill="#EC2024" d="M721.148,257.669c3.548,0.654,11.753-1.412,14.262-8.65c-7.455,5.464-15.892,2.845-19.167,0.732
			l-2.167-1.412c0,0-3.637-2.585-8.874-8.113c-3.579,0.669-7.914,2.124-10.454,3.975c7.748,5.946,18.804,11.678,24.86,13.183
			L721.148,257.669z"/>
	</g>
</g>
</svg>
